<svg width="24" height="24" viewBox="0 0 24 24" fill="none" xmlns="http://www.w3.org/2000/svg">
<path d="M15.6552 6.58915L15.659 5.81808C15.6644 4.73849 15.6671 4.19869 15.459 3.7853C15.276 3.42167 14.9826 3.12531 14.6208 2.9387C14.2095 2.72655 13.6697 2.72387 12.5901 2.71851L11.0479 2.71086C9.96835 2.7055 9.42856 2.70282 9.01517 2.91088C8.65154 3.09389 8.35518 3.38732 8.16856 3.74912C7.95642 4.16042 7.95374 4.70022 7.94838 5.77981L7.94455 6.55088M9.8459 11.8615L9.82198 16.6807M13.7012 11.8806L13.6773 16.6998M3.1254 6.52695L20.4744 6.61307M18.5467 6.6035L18.4931 17.3984C18.4851 19.0178 18.4811 19.8275 18.1628 20.4444C17.8829 20.9871 17.4384 21.4273 16.8929 21.7018C16.2728 22.0139 15.4631 22.0099 13.8438 22.0018L9.6029 21.9808C7.98351 21.9727 7.17382 21.9687 6.55686 21.6505C6.01417 21.3706 5.57402 20.926 5.2995 20.3806C4.98742 19.7605 4.99144 18.9508 4.99948 17.3314L5.05306 6.53652" stroke="#344054" stroke-width="1.92769" stroke-linecap="round" stroke-linejoin="round"/>
</svg>
