<svg width="8" height="10" viewBox="0 0 8 10" fill="none" xmlns="http://www.w3.org/2000/svg">
<path d="M0.9947 0.763796C0.900415 0.837876 0.825612 0.92587 0.774574 1.02274C0.723537 1.11961 0.697266 1.22345 0.697266 1.32833C0.697266 1.4332 0.723537 1.53704 0.774574 1.63391C0.825612 1.73078 0.900415 1.81878 0.9947 1.89286L4.94091 4.99978L0.9947 8.10671C0.804532 8.25643 0.697696 8.4595 0.697696 8.67124C0.697696 8.88298 0.804532 9.08605 0.9947 9.23577C1.18487 9.38549 1.44279 9.4696 1.71173 9.4696C1.98067 9.4696 2.23859 9.38549 2.42876 9.23577L7.09708 5.56031C7.19137 5.48623 7.26617 5.39823 7.31721 5.30136C7.36824 5.20449 7.39451 5.10065 7.39451 4.99578C7.39451 4.8909 7.36824 4.78706 7.31721 4.69019C7.26617 4.59332 7.19137 4.50533 7.09708 4.43125L2.42876 0.755788C2.04228 0.451502 1.39135 0.451502 0.9947 0.763796Z" fill="#2B79D3"/>
</svg>
