<svg width="7" height="10" viewBox="0 0 7 10" fill="none" xmlns="http://www.w3.org/2000/svg">
<path d="M6.39983 0.763796C6.49412 0.837876 6.56892 0.92587 6.61996 1.02274C6.67099 1.11961 6.69727 1.22345 6.69727 1.32833C6.69727 1.4332 6.67099 1.53704 6.61996 1.63391C6.56892 1.73078 6.49412 1.81878 6.39983 1.89286L2.45363 4.99978L6.39983 8.1067C6.59 8.25643 6.69683 8.45949 6.69683 8.67123C6.69683 8.88298 6.59 9.08604 6.39983 9.23577C6.20966 9.38549 5.95174 9.4696 5.6828 9.4696C5.41386 9.4696 5.15594 9.38549 4.96577 9.23577L0.297451 5.56031C0.203166 5.48623 0.128363 5.39823 0.0773254 5.30136C0.0262877 5.20449 1.76874e-05 5.10065 1.76874e-05 4.99578C1.76874e-05 4.8909 0.0262877 4.78706 0.0773254 4.69019C0.128363 4.59332 0.203166 4.50533 0.297451 4.43125L4.96577 0.755788C5.35226 0.451502 6.00318 0.451502 6.39983 0.763796Z" fill="#2B79D3"/>
</svg>
