<svg width="7" height="10" viewBox="0 0 7 10" fill="none" xmlns="http://www.w3.org/2000/svg">
<path d="M0.418528 0.459718C0.324243 0.533799 0.24944 0.621793 0.198402 0.718663C0.147365 0.815532 0.121094 0.919376 0.121094 1.02425C0.121094 1.12912 0.147365 1.23297 0.198402 1.32984C0.24944 1.42671 0.324243 1.5147 0.418528 1.58878L4.36473 4.6957L0.418528 7.80263C0.22836 7.95235 0.121524 8.15542 0.121524 8.36716C0.121524 8.5789 0.22836 8.78197 0.418528 8.93169C0.608696 9.08141 0.866619 9.16553 1.13556 9.16553C1.4045 9.16553 1.66242 9.08141 1.85259 8.93169L6.52091 5.25623C6.61519 5.18215 6.69 5.09416 6.74103 4.99729C6.79207 4.90042 6.81834 4.79657 6.81834 4.6917C6.81834 4.58683 6.79207 4.48298 6.74103 4.38611C6.69 4.28924 6.61519 4.20125 6.52091 4.12717L1.85259 0.451711C1.4661 0.147424 0.815183 0.147425 0.418528 0.459718Z" fill="#2B79D3"/>
</svg>
