<svg width="7" height="10" viewBox="0 0 7 10" fill="none" xmlns="http://www.w3.org/2000/svg">
<path d="M6.52093 0.459718C6.61521 0.533799 6.69001 0.621793 6.74105 0.718663C6.79209 0.815532 6.81836 0.919376 6.81836 1.02425C6.81836 1.12912 6.79209 1.23297 6.74105 1.32984C6.69001 1.42671 6.61521 1.5147 6.52093 1.58878L2.57472 4.6957L6.52093 7.80263C6.71109 7.95235 6.81793 8.15542 6.81793 8.36716C6.81793 8.5789 6.71109 8.78197 6.52093 8.93169C6.33076 9.08141 6.07283 9.16553 5.8039 9.16553C5.53496 9.16553 5.27703 9.08141 5.08687 8.93169L0.418545 5.25623C0.324259 5.18215 0.249457 5.09416 0.198419 4.99729C0.147381 4.90042 0.121111 4.79657 0.121111 4.6917C0.121111 4.58683 0.147381 4.48298 0.198419 4.38611C0.249457 4.28924 0.324259 4.20125 0.418545 4.12717L5.08687 0.451711C5.47335 0.147424 6.12427 0.147425 6.52093 0.459718Z" fill="#2B79D3"/>
</svg>
